<?xml version="1.0" encoding="iso-8859-1"?>
<!-- Generator: Adobe Illustrator 18.1.1, SVG Export Plug-In . SVG Version: 6.00 Build 0)  -->
<svg version="1.1" xmlns="http://www.w3.org/2000/svg" xmlns:xlink="http://www.w3.org/1999/xlink" x="0px" y="0px" width="350px"
	 height="400px" viewBox="0 0 350 400" style="enable-background:new 0 0 350 400;" xml:space="preserve">
<g id="Agile_transformation">
	<g id="Shape_52">
		<g>
			<path style="fill:#007399;" d="M338,300.51l-32.795-32.857v14.601h-33.738c-12.745,15.012-28.336,27.474-45.991,36.524h79.729
				v14.598L338,300.51z M103.694,265.838c-25.787-17.393-42.803-46.91-42.803-80.33c0-48.728,36.135-89.137,83.026-95.787
				l-19.233-19.224l17.319-17.322C75.921,60.886,24.419,117.282,24.419,185.511c0,30.142,10.081,57.974,26.985,80.33h52.289V265.838
				z M290.62,185.505c0-67.927-51.016-124.096-116.683-132.224V37.624l-32.835,32.872l32.835,32.86V90.169
				c45.468,7.83,80.212,47.585,80.212,95.339c0,53.351-43.367,96.746-96.631,96.746H8.037l18.218,18.256L8,318.775h149.521
				C230.909,318.775,290.62,258.989,290.62,185.505z"/>
		</g>
	</g>
</g>
<g id="Layer_1">
</g>
</svg>
